<svg width="111" height="40" viewBox="0 0 111 40" fill="none" xmlns="http://www.w3.org/2000/svg">
<rect width="111" height="40" rx="8" fill="#1F53B9"/>
<path d="M30 17H26C25.45 17 25 16.55 25 16C25 15.45 25.45 15 26 15H30C30.55 15 31 15.45 31 16C31 16.55 30.55 17 30 17Z" fill="white"/>
<path d="M30 20H26C25.45 20 25 19.55 25 19C25 18.45 25.45 18 26 18H30C30.55 18 31 18.45 31 19C31 19.55 30.55 20 30 20Z" fill="white"/>
<path d="M35.5 11.5L34 10L32.5 11.5L31 10L29.5 11.5L28 10L26.5 11.5L25 10L23.5 11.5L22 10V24H20C19.45 24 19 24.45 19 25V27C19 28.66 20.34 30 22 30H34C35.66 30 37 28.66 37 27V10L35.5 11.5ZM31 28H22C21.45 28 21 27.55 21 27V26H24H28H31V28ZM35 27C35 27.55 34.55 28 34 28C33.45 28 33 27.55 33 27V25C33 24.45 32.55 24 32 24H30H28H24V13H35V27Z" fill="white"/>
<path d="M33 17C33.5523 17 34 16.5523 34 16C34 15.4477 33.5523 15 33 15C32.4477 15 32 15.4477 32 16C32 16.5523 32.4477 17 33 17Z" fill="white"/>
<path d="M33 20C33.5523 20 34 19.5523 34 19C34 18.4477 33.5523 18 33 18C32.4477 18 32 18.4477 32 19C32 19.5523 32.4477 20 33 20Z" fill="white"/>
<path d="M55.77 18.168C55.546 17.7573 55.238 17.4447 54.846 17.23C54.454 17.0153 53.9967 16.908 53.474 16.908C52.8953 16.908 52.382 17.0387 51.934 17.3C51.486 17.5613 51.136 17.9347 50.884 18.42C50.632 18.9053 50.506 19.4653 50.506 20.1C50.506 20.7533 50.632 21.3227 50.884 21.808C51.1453 22.2933 51.5047 22.6667 51.962 22.928C52.4193 23.1893 52.9513 23.32 53.558 23.32C54.3047 23.32 54.916 23.124 55.392 22.732C55.868 22.3307 56.1807 21.7753 56.33 21.066H52.97V19.568H58.262V21.276C58.1313 21.9573 57.8513 22.5873 57.422 23.166C56.9927 23.7447 56.4373 24.2113 55.756 24.566C55.084 24.9113 54.328 25.084 53.488 25.084C52.5453 25.084 51.6913 24.874 50.926 24.454C50.17 24.0247 49.5727 23.432 49.134 22.676C48.7047 21.92 48.49 21.0613 48.49 20.1C48.49 19.1387 48.7047 18.28 49.134 17.524C49.5727 16.7587 50.17 16.166 50.926 15.746C51.6913 15.3167 52.5407 15.102 53.474 15.102C54.5753 15.102 55.532 15.3727 56.344 15.914C57.156 16.446 57.716 17.1973 58.024 18.168H55.77ZM61.8721 16.81V19.26H65.1621V20.814H61.8721V23.404H65.5821V25H59.9121V15.214H65.5821V16.81H61.8721ZM72.6033 25L70.4473 21.192H69.5233V25H67.5633V15.228H71.2313C71.9873 15.228 72.6313 15.3633 73.1633 15.634C73.6953 15.8953 74.0919 16.2547 74.3533 16.712C74.6239 17.16 74.7593 17.664 74.7593 18.224C74.7593 18.868 74.5726 19.4513 74.1993 19.974C73.8259 20.4873 73.2706 20.842 72.5333 21.038L74.8713 25H72.6033ZM69.5233 19.722H71.1613C71.6933 19.722 72.0899 19.596 72.3513 19.344C72.6126 19.0827 72.7433 18.7233 72.7433 18.266C72.7433 17.818 72.6126 17.4727 72.3513 17.23C72.0899 16.978 71.6933 16.852 71.1613 16.852H69.5233V19.722ZM82.724 23.138H78.832L78.188 25H76.13L79.644 15.214H81.926L85.44 25H83.368L82.724 23.138ZM82.192 21.57L80.778 17.482L79.364 21.57H82.192ZM91.9935 25L89.8375 21.192H88.9135V25H86.9535V15.228H90.6215C91.3775 15.228 92.0215 15.3633 92.5535 15.634C93.0855 15.8953 93.4822 16.2547 93.7435 16.712C94.0142 17.16 94.1495 17.664 94.1495 18.224C94.1495 18.868 93.9628 19.4513 93.5895 19.974C93.2162 20.4873 92.6608 20.842 91.9235 21.038L94.2615 25H91.9935ZM88.9135 19.722H90.5515C91.0835 19.722 91.4802 19.596 91.7415 19.344C92.0028 19.0827 92.1335 18.7233 92.1335 18.266C92.1335 17.818 92.0028 17.4727 91.7415 17.23C91.4802 16.978 91.0835 16.852 90.5515 16.852H88.9135V19.722Z" fill="white"/>
</svg>
