<svg width="114" height="40" viewBox="0 0 114 40" fill="none" xmlns="http://www.w3.org/2000/svg">
<rect width="114" height="40" rx="8" fill="#1F53B9"/>
<path d="M30 19C30 19.55 29.55 20 29 20H20C19.45 20 19 19.55 19 19C19 18.45 19.45 18 20 18H29C29.55 18 30 18.45 30 19ZM19 15C19 15.55 19.45 16 20 16H29C29.55 16 30 15.55 30 15C30 14.45 29.55 14 29 14H20C19.45 14 19 14.45 19 15ZM26 23C26 22.45 25.55 22 25 22H20C19.45 22 19 22.45 19 23C19 23.55 19.45 24 20 24H25C25.55 24 26 23.55 26 23ZM34.01 20.87L34.72 20.16C35.11 19.77 35.74 19.77 36.13 20.16L36.84 20.87C37.23 21.26 37.23 21.89 36.84 22.28L36.13 22.99L34.01 20.87ZM33.3 21.58L28.14 26.74C28.05 26.83 28 26.95 28 27.09V28.5C28 28.78 28.22 29 28.5 29H29.91C30.04 29 30.17 28.95 30.26 28.85L35.42 23.69L33.3 21.58Z" fill="white"/>
<path d="M50.926 16.81V19.26H54.216V20.814H50.926V23.404H54.636V25H48.966V15.214H54.636V16.81H50.926ZM60.0332 15.228C61.0598 15.228 61.9605 15.4287 62.7352 15.83C63.5192 16.2313 64.1212 16.8053 64.5412 17.552C64.9705 18.2893 65.1852 19.148 65.1852 20.128C65.1852 21.108 64.9705 21.9667 64.5412 22.704C64.1212 23.432 63.5192 23.9967 62.7352 24.398C61.9605 24.7993 61.0598 25 60.0332 25H56.6172V15.228H60.0332ZM59.9632 23.334C60.9898 23.334 61.7832 23.054 62.3432 22.494C62.9032 21.934 63.1832 21.1453 63.1832 20.128C63.1832 19.1107 62.9032 18.3173 62.3432 17.748C61.7832 17.1693 60.9898 16.88 59.9632 16.88H58.5772V23.334H59.9632ZM68.8123 15.228V25H66.8523V15.228H68.8123ZM77.5988 15.228V16.81H74.9948V25H73.0348V16.81H70.4308V15.228H77.5988ZM85.2209 23.138H81.3289L80.6849 25H78.6269L82.1409 15.214H84.4229L87.9369 25H85.8649L85.2209 23.138ZM84.6889 21.57L83.2749 17.482L81.8609 21.57H84.6889ZM94.4904 25L92.3344 21.192H91.4104V25H89.4504V15.228H93.1184C93.8744 15.228 94.5184 15.3633 95.0504 15.634C95.5824 15.8953 95.979 16.2547 96.2404 16.712C96.511 17.16 96.6464 17.664 96.6464 18.224C96.6464 18.868 96.4597 19.4513 96.0864 19.974C95.713 20.4873 95.1577 20.842 94.4204 21.038L96.7584 25H94.4904ZM91.4104 19.722H93.0484C93.5804 19.722 93.977 19.596 94.2384 19.344C94.4997 19.0827 94.6304 18.7233 94.6304 18.266C94.6304 17.818 94.4997 17.4727 94.2384 17.23C93.977 16.978 93.5804 16.852 93.0484 16.852H91.4104V19.722Z" fill="white"/>
</svg>
