<svg width="97" height="40" viewBox="0 0 97 40" fill="none" xmlns="http://www.w3.org/2000/svg">
<rect width="97" height="40" rx="8" fill="#1F53B9"/>
<path d="M29.89 16.7L28 18.59L26.11 16.7C25.72 16.31 25.09 16.31 24.7 16.7C24.31 17.09 24.31 17.72 24.7 18.11L26.59 20L24.7 21.89C24.31 22.28 24.31 22.91 24.7 23.3C25.09 23.69 25.72 23.69 26.11 23.3L28 21.41L29.89 23.3C30.28 23.69 30.91 23.69 31.3 23.3C31.69 22.91 31.69 22.28 31.3 21.89L29.41 20L31.3 18.11C31.69 17.72 31.69 17.09 31.3 16.7C30.91 16.32 30.27 16.32 29.89 16.7ZM28 10C22.47 10 18 14.47 18 20C18 25.53 22.47 30 28 30C33.53 30 38 25.53 38 20C38 14.47 33.53 10 28 10ZM28 28C23.59 28 20 24.41 20 20C20 15.59 23.59 12 28 12C32.41 12 36 15.59 36 20C36 24.41 32.41 28 28 28Z" fill="white"/>
<path d="M52.34 25.098C51.6587 25.098 51.0427 24.9813 50.492 24.748C49.9507 24.5147 49.5213 24.1787 49.204 23.74C48.8867 23.3013 48.7233 22.7833 48.714 22.186H50.814C50.842 22.5873 50.982 22.9047 51.234 23.138C51.4953 23.3713 51.85 23.488 52.298 23.488C52.7553 23.488 53.1147 23.3807 53.376 23.166C53.6373 22.942 53.768 22.6527 53.768 22.298C53.768 22.0087 53.6793 21.7707 53.502 21.584C53.3247 21.3973 53.1007 21.2527 52.83 21.15C52.5687 21.038 52.2047 20.9167 51.738 20.786C51.1033 20.5993 50.5853 20.4173 50.184 20.24C49.792 20.0533 49.4513 19.778 49.162 19.414C48.882 19.0407 48.742 18.546 48.742 17.93C48.742 17.3513 48.8867 16.8473 49.176 16.418C49.4653 15.9887 49.8713 15.662 50.394 15.438C50.9167 15.2047 51.514 15.088 52.186 15.088C53.194 15.088 54.0107 15.3353 54.636 15.83C55.2707 16.3153 55.6207 16.9967 55.686 17.874H53.53C53.5113 17.538 53.3667 17.2627 53.096 17.048C52.8347 16.824 52.4847 16.712 52.046 16.712C51.6633 16.712 51.3553 16.81 51.122 17.006C50.898 17.202 50.786 17.4867 50.786 17.86C50.786 18.1213 50.87 18.3407 51.038 18.518C51.2153 18.686 51.43 18.826 51.682 18.938C51.9433 19.0407 52.3073 19.162 52.774 19.302C53.4087 19.4887 53.9267 19.6753 54.328 19.862C54.7293 20.0487 55.0747 20.3287 55.364 20.702C55.6533 21.0753 55.798 21.5653 55.798 22.172C55.798 22.6947 55.6627 23.18 55.392 23.628C55.1213 24.076 54.7247 24.4353 54.202 24.706C53.6793 24.9673 53.0587 25.098 52.34 25.098ZM63.6892 23.138H59.7972L59.1532 25H57.0952L60.6092 15.214H62.8913L66.4053 25H64.3333L63.6892 23.138ZM63.1573 21.57L61.7432 17.482L60.3292 21.57H63.1573ZM69.8787 15.228V25H67.9187V15.228H69.8787ZM77.0552 25L74.8992 21.192H73.9752V25H72.0152V15.228H75.6832C76.4392 15.228 77.0832 15.3633 77.6152 15.634C78.1472 15.8953 78.5439 16.2547 78.8052 16.712C79.0759 17.16 79.2112 17.664 79.2112 18.224C79.2112 18.868 79.0246 19.4513 78.6512 19.974C78.2779 20.4873 77.7226 20.842 76.9852 21.038L79.3232 25H77.0552ZM73.9752 19.722H75.6132C76.1452 19.722 76.5419 19.596 76.8032 19.344C77.0646 19.0827 77.1952 18.7233 77.1952 18.266C77.1952 17.818 77.0646 17.4727 76.8032 17.23C76.5419 16.978 76.1452 16.852 75.6132 16.852H73.9752V19.722Z" fill="white"/>
</svg>
