<svg width="119" height="40" viewBox="0 0 119 40" fill="none" xmlns="http://www.w3.org/2000/svg">
<rect width="119" height="40" rx="8" fill="#1F53B9"/>
<path d="M37.29 13.89L27.29 23.89C26.9 24.28 26.27 24.28 25.88 23.89L23.05 21.06C22.66 20.67 22.66 20.04 23.05 19.65C23.44 19.26 24.07 19.26 24.46 19.65L26.58 21.77L35.87 12.48C36.26 12.09 36.89 12.09 37.28 12.48C37.68 12.87 37.68 13.5 37.29 13.89ZM28 28C23.29 28 19.52 23.91 20.05 19.1C20.44 15.58 23.17 12.69 26.66 12.11C28.47 11.81 30.19 12.13 31.65 12.89C32.04 13.09 32.51 13.02 32.82 12.71C33.3 12.23 33.18 11.42 32.58 11.11C31.11 10.36 29.45 9.95001 27.68 10C22.54 10.16 18.27 14.34 18.01 19.47C17.72 25.24 22.3 30 28 30C29.2 30 30.34 29.79 31.41 29.4C32.09 29.15 32.28 28.27 31.76 27.75C31.49 27.48 31.08 27.38 30.72 27.52C29.87 27.83 28.95 28 28 28ZM35 23H33C32.45 23 32 23.45 32 24C32 24.55 32.45 25 33 25H35V27C35 27.55 35.45 28 36 28C36.55 28 37 27.55 37 27V25H39C39.55 25 40 24.55 40 24C40 23.45 39.55 23 39 23H37V21C37 20.45 36.55 20 36 20C35.45 20 35 20.45 35 21V23Z" fill="white"/>
<path d="M52.34 25.098C51.6587 25.098 51.0427 24.9813 50.492 24.748C49.9507 24.5147 49.5213 24.1787 49.204 23.74C48.8867 23.3013 48.7233 22.7833 48.714 22.186H50.814C50.842 22.5873 50.982 22.9047 51.234 23.138C51.4953 23.3713 51.85 23.488 52.298 23.488C52.7553 23.488 53.1147 23.3807 53.376 23.166C53.6373 22.942 53.768 22.6527 53.768 22.298C53.768 22.0087 53.6793 21.7707 53.502 21.584C53.3247 21.3973 53.1007 21.2527 52.83 21.15C52.5687 21.038 52.2047 20.9167 51.738 20.786C51.1033 20.5993 50.5853 20.4173 50.184 20.24C49.792 20.0533 49.4513 19.778 49.162 19.414C48.882 19.0407 48.742 18.546 48.742 17.93C48.742 17.3513 48.8867 16.8473 49.176 16.418C49.4653 15.9887 49.8713 15.662 50.394 15.438C50.9167 15.2047 51.514 15.088 52.186 15.088C53.194 15.088 54.0107 15.3353 54.636 15.83C55.2707 16.3153 55.6207 16.9967 55.686 17.874H53.53C53.5113 17.538 53.3667 17.2627 53.096 17.048C52.8347 16.824 52.4847 16.712 52.046 16.712C51.6633 16.712 51.3553 16.81 51.122 17.006C50.898 17.202 50.786 17.4867 50.786 17.86C50.786 18.1213 50.87 18.3407 51.038 18.518C51.2153 18.686 51.43 18.826 51.682 18.938C51.9433 19.0407 52.3073 19.162 52.774 19.302C53.4087 19.4887 53.9267 19.6753 54.328 19.862C54.7293 20.0487 55.0747 20.3287 55.364 20.702C55.6533 21.0753 55.798 21.5653 55.798 22.172C55.798 22.6947 55.6627 23.18 55.392 23.628C55.1213 24.076 54.7247 24.4353 54.202 24.706C53.6793 24.9673 53.0587 25.098 52.34 25.098ZM63.6892 23.138H59.7972L59.1532 25H57.0952L60.6092 15.214H62.8913L66.4053 25H64.3333L63.6892 23.138ZM63.1573 21.57L61.7432 17.482L60.3292 21.57H63.1573ZM69.8787 23.446H73.0987V25H67.9187V15.228H69.8787V23.446ZM83.3225 15.228L79.7385 25H77.3585L73.7745 15.228H75.8745L78.5625 22.998L81.2365 15.228H83.3225ZM90.6896 23.138H86.7976L86.1536 25H84.0956L87.6096 15.214H89.8916L93.4056 25H91.3336L90.6896 23.138ZM90.1576 21.57L88.7436 17.482L87.3296 21.57H90.1576ZM99.9591 25L97.8031 21.192H96.8791V25H94.9191V15.228H98.5871C99.3431 15.228 99.9871 15.3633 100.519 15.634C101.051 15.8953 101.448 16.2547 101.709 16.712C101.98 17.16 102.115 17.664 102.115 18.224C102.115 18.868 101.928 19.4513 101.555 19.974C101.182 20.4873 100.626 20.842 99.8891 21.038L102.227 25H99.9591ZM96.8791 19.722H98.5171C99.0491 19.722 99.4458 19.596 99.7071 19.344C99.9685 19.0827 100.099 18.7233 100.099 18.266C100.099 17.818 99.9685 17.4727 99.7071 17.23C99.4458 16.978 99.0491 16.852 98.5171 16.852H96.8791V19.722Z" fill="white"/>
</svg>
