<svg width="107" height="40" viewBox="0 0 107 40" fill="none" xmlns="http://www.w3.org/2000/svg">
<rect width="107" height="40" rx="8" fill="#1F53B9"/>
<path d="M28 15C27.45 15 27 15.45 27 16V19H24C23.45 19 23 19.45 23 20C23 20.55 23.45 21 24 21H27V24C27 24.55 27.45 25 28 25C28.55 25 29 24.55 29 24V21H32C32.55 21 33 20.55 33 20C33 19.45 32.55 19 32 19H29V16C29 15.45 28.55 15 28 15ZM28 10C22.48 10 18 14.48 18 20C18 25.52 22.48 30 28 30C33.52 30 38 25.52 38 20C38 14.48 33.52 10 28 10ZM28 28C23.59 28 20 24.41 20 20C20 15.59 23.59 12 28 12C32.41 12 36 15.59 36 20C36 24.41 32.41 28 28 28Z" fill="white"/>
<path d="M57.324 25H55.364L50.926 18.294V25H48.966V15.214H50.926L55.364 21.934V15.214H57.324V25ZM63.9969 25.098C63.0823 25.098 62.2423 24.8833 61.4769 24.454C60.7116 24.0247 60.1049 23.432 59.6569 22.676C59.2089 21.9107 58.9849 21.0473 58.9849 20.086C58.9849 19.134 59.2089 18.28 59.6569 17.524C60.1049 16.7587 60.7116 16.1613 61.4769 15.732C62.2423 15.3027 63.0823 15.088 63.9969 15.088C64.9209 15.088 65.7609 15.3027 66.5169 15.732C67.2823 16.1613 67.8843 16.7587 68.3229 17.524C68.7709 18.28 68.9949 19.134 68.9949 20.086C68.9949 21.0473 68.7709 21.9107 68.3229 22.676C67.8843 23.432 67.2823 24.0247 66.5169 24.454C65.7516 24.8833 64.9116 25.098 63.9969 25.098ZM63.9969 23.348C64.5849 23.348 65.1029 23.2173 65.5509 22.956C65.9989 22.6853 66.3489 22.3027 66.6009 21.808C66.8529 21.3133 66.9789 20.7393 66.9789 20.086C66.9789 19.4327 66.8529 18.8633 66.6009 18.378C66.3489 17.8833 65.9989 17.5053 65.5509 17.244C65.1029 16.9827 64.5849 16.852 63.9969 16.852C63.4089 16.852 62.8863 16.9827 62.4289 17.244C61.9809 17.5053 61.6309 17.8833 61.3789 18.378C61.1269 18.8633 61.0009 19.4327 61.0009 20.086C61.0009 20.7393 61.1269 21.3133 61.3789 21.808C61.6309 22.3027 61.9809 22.6853 62.4289 22.956C62.8863 23.2173 63.4089 23.348 63.9969 23.348ZM79.4311 15.228L75.8471 25H73.4671L69.8831 15.228H71.9831L74.6711 22.998L77.3451 15.228H79.4311ZM85.3422 25.098C84.4276 25.098 83.5876 24.8833 82.8222 24.454C82.0569 24.0247 81.4502 23.432 81.0022 22.676C80.5542 21.9107 80.3302 21.0473 80.3302 20.086C80.3302 19.134 80.5542 18.28 81.0022 17.524C81.4502 16.7587 82.0569 16.1613 82.8222 15.732C83.5876 15.3027 84.4276 15.088 85.3422 15.088C86.2662 15.088 87.1062 15.3027 87.8622 15.732C88.6276 16.1613 89.2296 16.7587 89.6682 17.524C90.1162 18.28 90.3402 19.134 90.3402 20.086C90.3402 21.0473 90.1162 21.9107 89.6682 22.676C89.2296 23.432 88.6276 24.0247 87.8622 24.454C87.0969 24.8833 86.2569 25.098 85.3422 25.098ZM85.3422 23.348C85.9302 23.348 86.4482 23.2173 86.8962 22.956C87.3442 22.6853 87.6942 22.3027 87.9462 21.808C88.1982 21.3133 88.3242 20.7393 88.3242 20.086C88.3242 19.4327 88.1982 18.8633 87.9462 18.378C87.6942 17.8833 87.3442 17.5053 86.8962 17.244C86.4482 16.9827 85.9302 16.852 85.3422 16.852C84.7542 16.852 84.2316 16.9827 83.7742 17.244C83.3262 17.5053 82.9762 17.8833 82.7242 18.378C82.4722 18.8633 82.3462 19.4327 82.3462 20.086C82.3462 20.7393 82.4722 21.3133 82.7242 21.808C82.9762 22.3027 83.3262 22.6853 83.7742 22.956C84.2316 23.2173 84.7542 23.348 85.3422 23.348Z" fill="white"/>
</svg>
