<svg width="123" height="40" viewBox="0 0 123 40" fill="none" xmlns="http://www.w3.org/2000/svg">
<rect width="123" height="40" rx="8" fill="#1F53B9"/>
<path d="M23 20C23 20.55 23.45 21 24 21H32C32.55 21 33 20.55 33 20C33 19.45 32.55 19 32 19H24C23.45 19 23 19.45 23 20ZM28 10C22.48 10 18 14.48 18 20C18 25.52 22.48 30 28 30C33.52 30 38 25.52 38 20C38 14.48 33.52 10 28 10ZM28 28C23.59 28 20 24.41 20 20C20 15.59 23.59 12 28 12C32.41 12 36 15.59 36 20C36 24.41 32.41 28 28 28Z" fill="white"/>
<path d="M50.926 16.81V19.26H54.216V20.814H50.926V23.404H54.636V25H48.966V15.214H54.636V16.81H50.926ZM62.4692 25L60.3552 21.71L58.4372 25H56.2252L59.3052 20.072L56.1832 15.228H58.4372L60.5512 18.504L62.4552 15.228H64.6672L61.6012 20.142L64.7232 25H62.4692ZM65.9388 20.1C65.9388 19.1387 66.1535 18.28 66.5828 17.524C67.0215 16.7587 67.6142 16.166 68.3608 15.746C69.1168 15.3167 69.9615 15.102 70.8948 15.102C71.9868 15.102 72.9435 15.382 73.7648 15.942C74.5862 16.502 75.1602 17.2767 75.4868 18.266H73.2328C73.0088 17.7993 72.6915 17.4493 72.2808 17.216C71.8795 16.9827 71.4128 16.866 70.8808 16.866C70.3115 16.866 69.8028 17.0013 69.3548 17.272C68.9162 17.5333 68.5708 17.9067 68.3188 18.392C68.0762 18.8773 67.9548 19.4467 67.9548 20.1C67.9548 20.744 68.0762 21.3133 68.3188 21.808C68.5708 22.2933 68.9162 22.6713 69.3548 22.942C69.8028 23.2033 70.3115 23.334 70.8808 23.334C71.4128 23.334 71.8795 23.2173 72.2808 22.984C72.6915 22.7413 73.0088 22.3867 73.2328 21.92H75.4868C75.1602 22.9187 74.5862 23.698 73.7648 24.258C72.9528 24.8087 71.9962 25.084 70.8948 25.084C69.9615 25.084 69.1168 24.874 68.3608 24.454C67.6142 24.0247 67.0215 23.432 66.5828 22.676C66.1535 21.92 65.9388 21.0613 65.9388 20.1ZM79.3209 23.446H82.5409V25H77.3609V15.228H79.3209V23.446ZM85.9187 15.228V21.276C85.9187 21.9387 86.0914 22.4473 86.4367 22.802C86.782 23.1473 87.2674 23.32 87.8927 23.32C88.5274 23.32 89.0174 23.1473 89.3627 22.802C89.708 22.4473 89.8807 21.9387 89.8807 21.276V15.228H91.8547V21.262C91.8547 22.0927 91.6727 22.7973 91.3087 23.376C90.954 23.9453 90.4734 24.3747 89.8667 24.664C89.2694 24.9533 88.602 25.098 87.8647 25.098C87.1367 25.098 86.474 24.9533 85.8767 24.664C85.2887 24.3747 84.822 23.9453 84.4767 23.376C84.1314 22.7973 83.9587 22.0927 83.9587 21.262V15.228H85.9187ZM95.9084 15.228V25H93.9484V15.228H95.9084ZM103.085 25L100.929 21.192H100.005V25H98.0449V15.228H101.713C102.469 15.228 103.113 15.3633 103.645 15.634C104.177 15.8953 104.574 16.2547 104.835 16.712C105.106 17.16 105.241 17.664 105.241 18.224C105.241 18.868 105.054 19.4513 104.681 19.974C104.308 20.4873 103.752 20.842 103.015 21.038L105.353 25H103.085ZM100.005 19.722H101.643C102.175 19.722 102.572 19.596 102.833 19.344C103.094 19.0827 103.225 18.7233 103.225 18.266C103.225 17.818 103.094 17.4727 102.833 17.23C102.572 16.978 102.175 16.852 101.643 16.852H100.005V19.722Z" fill="white"/>
</svg>
